<svg xmlns="http://www.w3.org/2000/svg" viewBox="0 0 88.59 88.59"><g id="Layer_2" data-name="Layer 2"><g id="OBJECTS"><circle cx="44.29" cy="44.29" r="44.29" transform="translate(-18.35 44.29) rotate(-45)" style="fill:#d8d8d8"/><path d="M44.29,0h-.23V88.58h.23A44.3,44.3,0,1,0,44.29,0Z" style="fill:#c6c6c6"/><circle cx="44.29" cy="44.29" r="41.36" style="fill:#1e1e1e"/><path d="M44.06,3a41.35,41.35,0,0,0,0,82.69Z" style="fill:none"/><path d="M44.29,85.65a41.36,41.36,0,1,0,0-82.71h-.23V85.64Z" style="fill:#141414"/><path d="M36.55,43.3v5.62h9.3C45.47,51.34,43,56,36.55,56a10.35,10.35,0,0,1,0-20.7,9.15,9.15,0,0,1,6.53,2.53l4.45-4.29a15.68,15.68,0,0,0-11-4.28,16.39,16.39,0,0,0,0,32.78C46,62,52.29,55.39,52.29,46A15.13,15.13,0,0,0,52,43.3Z" style="fill:#fff"/><path d="M71.67,43.3H67V38.62H62.31V43.3H57.63V48h4.68v4.68H67V48h4.68Z" style="fill:#fff"/></g></g></svg>